<?xml version="1.0" encoding="utf-8"?>
<!-- Generator: Adobe Illustrator 19.1.0, SVG Export Plug-In . SVG Version: 6.00 Build 0)  -->
<svg version="1.1" id="Camada_1" xmlns="http://www.w3.org/2000/svg" xmlns:xlink="http://www.w3.org/1999/xlink" x="0px" y="0px"
	 width="32.1px" height="31.1px" viewBox="0 0 32.1 31.1" style="enable-background:new 0 0 32.1 31.1;" xml:space="preserve">
<style type="text/css">
	.st0{fill:#FFFFFF;}
</style>
<path class="st0" d="M3.1,30.4c-0.5,0-1-0.2-1.3-0.6c-0.7-0.7-0.7-1.9,0-2.7L8,20.9c-3.7-5-3.3-12,1.2-16.5c4.9-4.9,13-4.9,17.9,0
	c4.9,4.9,4.9,13,0,17.9c-4.5,4.5-11.5,4.9-16.5,1.2l-6.2,6.2C4.1,30.2,3.6,30.4,3.1,30.4L3.1,30.4z M8.5,21.7l-6.1,6.1
	c-0.4,0.4-0.4,1,0,1.4c0.2,0.2,0.4,0.3,0.7,0.3c0.3,0,0.5-0.1,0.7-0.3l6.1-6.1L8.5,21.7z M18.2,1.6c-3,0-6,1.2-8.3,3.4
	c-4.6,4.6-4.6,12.1,0,16.7c4.6,4.6,12.1,4.6,16.7,0c4.6-4.6,4.6-12.1,0-16.7C24.2,2.8,21.2,1.6,18.2,1.6L18.2,1.6z M24.4,5.9
	c-0.1,0-0.2,0-0.3-0.1c-3.2-3.2-8.5-3.2-11.7,0c-0.2,0.2-0.5,0.2-0.6,0c-0.2-0.2-0.2-0.5,0-0.6c1.7-1.7,4-2.7,6.5-2.7
	c2.5,0,4.8,1,6.5,2.7c0.2,0.2,0.2,0.5,0,0.6C24.6,5.9,24.5,5.9,24.4,5.9L24.4,5.9z M24.4,7.7 M17.4,13.2v-2.6h0.7v2.6h2.6V14h-2.6
	v2.6h-0.7V14h-2.6v-0.7H17.4z"/>
</svg>
