<?xml version="1.0" encoding="utf-8"?>
<!-- Generator: Adobe Illustrator 19.0.0, SVG Export Plug-In . SVG Version: 6.00 Build 0)  -->
<svg version="1.1" id="Camada_1" xmlns="http://www.w3.org/2000/svg" xmlns:xlink="http://www.w3.org/1999/xlink" x="0px" y="0px"
	 width="32.1px" height="31.1px" viewBox="-281 405.8 32.1 31.1" style="enable-background:new -281 405.8 32.1 31.1;"
	 xml:space="preserve">
<style type="text/css">
	.st0{fill:#3F71B1;}
</style>
<path class="st0" d="M-277.9,436.2c-0.5,0-1-0.2-1.3-0.6c-0.7-0.7-0.7-1.9,0-2.7l6.2-6.2c-3.7-5-3.3-12,1.2-16.5
	c4.9-4.9,13-4.9,17.9,0s4.9,13,0,17.9c-4.5,4.5-11.5,4.9-16.5,1.2l-6.2,6.2C-276.9,436-277.4,436.2-277.9,436.2L-277.9,436.2z
	 M-272.5,427.5l-6.1,6.1c-0.4,0.4-0.4,1,0,1.4c0.2,0.2,0.4,0.3,0.7,0.3c0.3,0,0.5-0.1,0.7-0.3l6.1-6.1L-272.5,427.5z M-262.8,407.4
	c-3,0-6,1.2-8.3,3.4c-4.6,4.6-4.6,12.1,0,16.7s12.1,4.6,16.7,0c4.6-4.6,4.6-12.1,0-16.7C-256.8,408.6-259.8,407.4-262.8,407.4
	L-262.8,407.4z M-256.6,411.7c-0.1,0-0.2,0-0.3-0.1c-3.2-3.2-8.5-3.2-11.7,0c-0.2,0.2-0.5,0.2-0.6,0c-0.2-0.2-0.2-0.5,0-0.6
	c1.7-1.7,4-2.7,6.5-2.7s4.8,1,6.5,2.7c0.2,0.2,0.2,0.5,0,0.6C-256.4,411.7-256.5,411.7-256.6,411.7L-256.6,411.7z M-263.6,419v-2.6
	h0.7v2.6h2.6v0.8h-2.6v2.6h-0.7v-2.6h-2.6v-0.7h2.6V419z"/>
</svg>
