<?xml version="1.0" encoding="UTF-8"?>
<!DOCTYPE svg PUBLIC "-//W3C//DTD SVG 1.1//EN" "http://www.w3.org/Graphics/SVG/1.1/DTD/svg11.dtd">
<!-- Creator: CorelDRAW 2020 (64 Bit) -->
<svg xmlns="http://www.w3.org/2000/svg" xml:space="preserve" width="42.8263mm" height="21.4325mm" version="1.1" style="shape-rendering:geometricPrecision; text-rendering:geometricPrecision; image-rendering:optimizeQuality; fill-rule:evenodd; clip-rule:evenodd"
viewBox="0 0 4263.66 2133.76"
 xmlns:xlink="http://www.w3.org/1999/xlink"
 xmlns:xodm="http://www.corel.com/coreldraw/odm/2003">
 <defs>
  <style type="text/css">
   <![CDATA[
    .str0 {stroke:#1373BA;stroke-width:7.59;stroke-miterlimit:22.9256}
    .fil0 {fill:#1373BA;fill-rule:nonzero}
    .fil3 {fill:url(#id0);fill-rule:nonzero}
    .fil2 {fill:url(#id1);fill-rule:nonzero}
    .fil1 {fill:url(#id2);fill-rule:nonzero}
   ]]>
  </style>
  <linearGradient id="id0" gradientUnits="userSpaceOnUse" x1="2924.89" y1="2675.84" x2="3904.47" y2="61.44">
   <stop offset="0" style="stop-opacity:1; stop-color:#2D3269"/>
   <stop offset="0.541176" style="stop-opacity:1; stop-color:#1F204D"/>
   <stop offset="1" style="stop-opacity:1; stop-color:#141525"/>
  </linearGradient>
  <linearGradient id="id1" gradientUnits="userSpaceOnUse" xlink:href="#id0" x1="134.58" y1="1754.85" x2="1351.64" y2="-1542.86">
  </linearGradient>
  <linearGradient id="id2" gradientUnits="userSpaceOnUse" xlink:href="#id0" x1="1262.59" y1="-17145.13" x2="2420.27" y2="-14085.11">
  </linearGradient>
 </defs>
 <g id="Camada_x0020_1">
  <metadata id="CorelCorpID_0Corel-Layer"/>
  <path class="fil0 str0" d="M400.18 1924.41c0,39.8 -9.19,75.19 -27.53,105.94 -18.36,30.83 -44.11,54.21 -77.28,70.07 -33.17,15.86 -72.44,23.78 -117.7,23.78l-172.9 0 78.33 -336.3 147.51 0c55.82,0 98.09,11.93 126.68,35.87 28.57,23.93 42.88,57.48 42.88,100.64zm-118.56 7.69c0,-21.69 -6.36,-37.95 -18.9,-48.76 -12.6,-10.8 -31.93,-16.17 -57.96,-16.17l-28.66 0 -41.11 177.76 37.49 0c34.14,0 60.87,-10.1 80.09,-30.35 19.33,-20.26 29.04,-47.73 29.04,-82.48zm424.85 -64.93l-119.18 0 -11.12 49 111.68 0 -18.34 79.28 -111.69 0 -11.64 49.48 127.47 0 -18.62 79.28 -239.07 0 78.33 -336.3 230.78 0 -18.62 79.27zm286.36 15.45c-18.26,-9.21 -34.58,-15.69 -49.04,-19.46 -14.47,-3.76 -29.02,-5.61 -43.67,-5.61 -11.74,0 -21,2.24 -27.8,6.74 -6.79,4.55 -10.23,10.48 -10.23,17.77 0,6.88 2.74,12.81 8.3,17.77 5.46,5.05 17.37,12.1 35.63,21.14 29.29,14.1 49.75,28.59 61.41,43.49 11.63,14.97 17.47,33.96 17.47,56.94 0,21.69 -6.72,41.08 -20.04,58.12 -13.4,17.06 -31.84,29.72 -55.31,38.04 -23.56,8.24 -51.43,12.41 -83.63,12.41 -23.48,0 -45.35,-2.4 -65.81,-7.13 -20.38,-4.81 -38.29,-10.89 -53.64,-18.42l19.41 -82.96c32.9,22.02 66.25,33.07 100.04,33.07 26.82,0 40.32,-8.72 40.32,-26.09 0,-7.86 -3.36,-14.43 -9.98,-19.62 -6.62,-5.21 -18.26,-11.29 -35.02,-18.18 -27.87,-11.86 -47.81,-25.22 -59.8,-39.95 -12,-14.81 -17.99,-33.72 -17.99,-56.7 0,-21.7 6.52,-41.4 19.66,-58.93 13.06,-17.62 30.97,-30.83 53.72,-39.64 22.77,-8.88 49.14,-13.29 79.14,-13.29 23.73,0 45.08,1.92 63.96,5.84 18.89,3.92 36,8.41 51.25,13.46l-18.35 81.19zm413.31 41.79c0,39.8 -9.18,75.19 -27.52,105.94 -18.36,30.83 -44.12,54.21 -77.29,70.07 -33.17,15.86 -72.43,23.78 -117.69,23.78l-172.91 0 78.34 -336.3 147.5 0c55.84,0 98.1,11.93 126.69,35.87 28.57,23.93 42.87,57.48 42.87,100.64zm-118.56 7.69c0,-21.69 -6.36,-37.95 -18.89,-48.76 -12.6,-10.8 -31.93,-16.17 -57.96,-16.17l-28.67 0 -41.11 177.76 37.49 0c34.15,0 60.88,-10.1 80.11,-30.35 19.31,-20.26 29.02,-47.73 29.02,-82.48zm424.86 -64.93l-119.18 0 -11.12 49 111.68 0 -18.35 79.28 -111.68 0 -11.64 49.48 127.46 0 -18.61 79.28 -239.08 0 78.34 -336.3 230.77 0 -18.61 79.27zm194.34 257.04l58.94 -253.67 -77.29 10.56 17.83 -75.11 190.72 -23.86 -80.1 342.08 -110.1 0zm506.03 -207.72c0,22.66 -3.26,44.84 -9.8,66.37 -6.61,21.63 -16.23,41.88 -29.1,60.87 -12.88,19.06 -28.86,35.31 -47.91,48.91 -19.14,13.62 -38.81,23.15 -58.93,28.59 -20.21,5.53 -43.93,8.24 -71.11,8.24 -15.16,0 -29.81,-1.2 -44.1,-3.51 -14.2,-2.33 -25.67,-5.05 -34.5,-8.17l16.59 -75.19c6.89,3.76 16.86,6.97 29.99,9.77 13.07,2.73 25.69,4.09 37.68,4.09 50.89,0 83.19,-25.55 96.95,-76.72l-1.06 0c-11.03,10.49 -21.88,17.86 -32.56,21.94 -10.68,4.16 -23.2,6.24 -37.5,6.24 -25.66,0 -46.83,-8.72 -63.69,-26.18 -16.77,-17.45 -25.23,-40.27 -25.23,-68.39 0,-24.09 6.44,-46.59 19.14,-67.5 12.8,-20.89 29.99,-36.84 51.69,-47.8 21.71,-10.97 46.41,-16.43 73.93,-16.43 39.96,0 71.54,12.11 94.75,36.36 23.2,24.26 34.76,57.1 34.76,98.49zm-102.07 -24.66c0,-9.61 -2.82,-17.85 -8.47,-24.83 -5.56,-6.96 -12.7,-10.39 -21.26,-10.39 -10.67,0 -19.59,4.72 -26.74,14.17 -7.14,9.53 -10.75,20.65 -10.75,33.47 0,10.17 2.65,18.5 7.85,24.9 5.3,6.4 12.27,9.61 20.83,9.61 10.85,0 20.02,-4.32 27.44,-12.89 7.41,-8.65 11.11,-19.94 11.11,-34.03zm115.75 148.45c0,-24.82 7.68,-45.4 23.03,-61.57 15.34,-16.26 38.99,-27.39 70.83,-33.32 -11.2,-5.6 -20.39,-14.57 -27.71,-26.9 -7.23,-12.25 -10.85,-25.62 -10.85,-40.03 0,-18.5 5.56,-35.07 16.69,-49.81 11.12,-14.72 27.08,-26.18 47.73,-34.27 20.64,-8.17 45.08,-12.26 73.12,-12.26 41.02,0 72.87,7.92 95.54,23.7 22.58,15.85 33.96,37.63 33.96,65.34 0,21.31 -7.59,39.55 -22.76,54.61 -15.17,15.13 -36.97,25.86 -65.36,32.11 17.72,6.9 31.21,16.5 40.4,28.91 9.26,12.41 13.84,27.06 13.84,43.88 0,19.21 -6.08,36.27 -18.26,51.32 -12.09,14.97 -29.55,26.58 -52.31,34.98 -22.77,8.34 -50.11,12.49 -82.12,12.49 -27.09,0 -50.9,-3.75 -71.55,-11.37 -20.56,-7.53 -36.44,-18.17 -47.56,-31.86 -11.11,-13.62 -16.67,-28.99 -16.67,-45.98zm104.19 -10.96c0,11.05 3.52,19.46 10.49,25.22 6.97,5.76 15.88,8.65 26.73,8.65 12.97,0 23.39,-3.84 31.41,-11.53 8.02,-7.78 11.99,-17.54 11.99,-29.31 0,-10.81 -3.35,-19.21 -10.05,-25.39 -6.71,-6.16 -15.8,-9.2 -27.18,-9.2 -13.05,0 -23.55,3.67 -31.49,10.96 -7.94,7.29 -11.91,17.54 -11.91,30.59zm49.14 -139.89c0,10.8 2.91,18.74 8.9,23.62 5.91,4.96 13.58,7.45 22.85,7.45 10.67,0 19.5,-3.6 26.37,-10.82 6.89,-7.21 10.32,-15.93 10.32,-26.09 0,-10.9 -2.82,-19.07 -8.37,-24.5 -5.64,-5.54 -13.32,-8.25 -23.11,-8.25 -11.21,0 -20.2,3.52 -26.92,10.49 -6.7,6.97 -10.05,16.33 -10.05,28.1zm467.3 27.06c0,22.66 -3.28,44.84 -9.81,66.37 -6.61,21.63 -16.23,41.88 -29.11,60.87 -12.88,19.06 -28.84,35.31 -47.91,48.91 -19.13,13.62 -38.81,23.15 -58.93,28.59 -20.2,5.53 -43.92,8.24 -71.1,8.24 -15.17,0 -29.82,-1.2 -44.1,-3.51 -14.21,-2.33 -25.68,-5.05 -34.5,-8.17l16.58 -75.19c6.89,3.76 16.86,6.97 30.01,9.77 13.05,2.73 25.67,4.09 37.67,4.09 50.88,0 83.18,-25.55 96.95,-76.72l-1.07 0c-11.03,10.49 -21.88,17.86 -32.56,21.94 -10.67,4.16 -23.2,6.24 -37.49,6.24 -25.67,0 -46.84,-8.72 -63.7,-26.18 -16.75,-17.45 -25.22,-40.27 -25.22,-68.39 0,-24.09 6.44,-46.59 19.13,-67.5 12.8,-20.89 30.01,-36.84 51.7,-47.8 21.7,-10.97 46.4,-16.43 73.93,-16.43 39.96,0 71.53,12.11 94.75,36.36 23.2,24.26 34.77,57.1 34.77,98.49zm-102.08 -24.66c0,-9.61 -2.83,-17.85 -8.48,-24.83 -5.56,-6.96 -12.7,-10.39 -21.26,-10.39 -10.67,0 -19.58,4.72 -26.73,14.17 -7.15,9.53 -10.76,20.65 -10.76,33.47 0,10.17 2.66,18.5 7.86,24.9 5.3,6.4 12.26,9.61 20.82,9.61 10.85,0 20.03,-4.32 27.45,-12.89 7.4,-8.65 11.11,-19.94 11.11,-34.03z"/>
  <polygon class="fil1" points="2444.01,1714.21 1799.86,1714.21 1428.81,1004.17 1505.99,1241.86 1455.53,1714.22 820.28,1714.21 1001.36,0 1612.86,0 2010.62,742.73 1933.44,522.88 1989.84,0 2625.08,0 "/>
  <path class="fil2" d="M683.73 1714.21l-641.18 0c41.56,-404.03 169.2,-1616.17 178.11,-1714.21l641.18 0 -178.11 1714.21z"/>
  <path class="fil3" d="M2758.67 0l727.26 0c578.85,0 694.61,308.98 650.08,668.45 -20.78,178.26 -121.7,365.42 -317.61,427.82l445.27 1027.94 -664.94 0 -531.35 -1292.35 166.22 0.01 249.35 0c86.09,0 106.86,-68.33 112.8,-112.89 5.93,-80.22 -59.38,-130.73 -130.62,-130.73l-282 0 -20.78 216.89 -154.35 -0.01 133.58 258.47 -74.21 647.65 -486.81 0 178.11 -1711.24z"/>
 </g>
</svg>
